<?xml version="1.0" standalone="no"?>
<!DOCTYPE svg PUBLIC "-//W3C//DTD SVG 20010904//EN"
 "http://www.w3.org/TR/2001/REC-SVG-20010904/DTD/svg10.dtd">
<svg version="1.0" xmlns="http://www.w3.org/2000/svg"
 width="1920.000000pt" height="1080.000000pt" viewBox="0 0 1920.000000 1080.000000"
 preserveAspectRatio="xMidYMid meet">

<g transform="translate(0.000000,1080.000000) scale(0.100000,-0.100000)"
fill="#000000" stroke="none">
<path d="M9148 8873 c-10 -2 -18 -7 -18 -10 0 -7 156 -542 176 -605 l16 -48
216 1 c245 1 321 -10 423 -62 116 -58 190 -152 220 -275 16 -66 16 -236 0
-304 -52 -218 -226 -355 -493 -386 -32 -4 -58 -11 -58 -17 0 -9 149 -523 181
-623 l10 -31 104 -6 c347 -22 614 -148 709 -336 79 -154 72 -383 -16 -556 -69
-135 -226 -275 -374 -335 -41 -17 -53 -27 -49 -39 11 -35 195 -664 195 -667 0
-8 196 53 292 92 208 84 355 180 488 320 213 224 310 486 327 884 16 381 -105
704 -356 950 -106 104 -209 172 -341 225 -45 18 -83 35 -86 38 -3 2 20 30 51
62 132 138 218 313 250 510 35 211 8 408 -77 580 -98 198 -259 350 -489 459
-300 143 -547 187 -1028 185 -141 -1 -264 -3 -273 -6z"/>
<path d="M7040 8304 c-208 -6 -523 -25 -658 -39 -74 -8 -138 -15 -143 -15 -5
0 -9 -326 -8 -792 0 -741 1 -791 17 -768 34 52 101 108 148 124 66 22 470 24
533 1 57 -20 97 -50 132 -98 l29 -40 0 421 0 422 28 7 c15 4 146 8 292 7 246
0 274 -2 385 -26 66 -14 149 -37 185 -51 35 -15 66 -25 68 -22 6 6 -241 839
-251 846 -21 15 -519 30 -757 23z"/>
<path d="M8242 6598 c-69 -142 -219 -251 -420 -306 -94 -25 -105 -26 -395 -27
l-297 0 0 -337 0 -337 44 -6 c25 -4 138 -8 253 -9 l208 -1 375 -850 376 -850
29 1 c17 1 119 7 228 13 109 6 255 11 324 11 l125 0 -7 27 c-3 15 -87 300
-185 633 -98 333 -276 936 -394 1340 -119 404 -220 742 -224 751 -5 11 -16 -3
-40 -53z"/>
<path d="M2217 6192 c-218 -218 -397 -402 -397 -407 0 -6 179 -189 398 -408
l397 -397 298 2 297 3 -392 398 -391 399 254 256 c140 141 319 323 399 405
l145 147 -305 0 -305 0 -398 -398z"/>
<path d="M5155 6336 c-28 -7 -79 -26 -114 -42 l-64 -30 238 -242 239 -243
-195 -197 c-107 -108 -212 -216 -233 -238 l-38 -42 43 -25 c95 -55 279 -74
404 -42 69 18 170 75 237 134 135 119 205 335 169 523 -41 212 -214 394 -422
443 -76 17 -194 18 -264 1z"/>
<path d="M12340 6334 c-109 -29 -178 -70 -259 -152 -88 -89 -123 -149 -151
-258 -65 -255 50 -517 280 -638 96 -51 156 -66 265 -66 107 0 187 19 267 63
l58 32 -232 232 -233 233 233 233 c181 181 230 236 220 244 -30 25 -122 64
-180 78 -79 19 -196 18 -268 -1z"/>
</g>
</svg>
